<?xml version="1.0" encoding="utf-8"?>
<!-- Generator: Adobe Illustrator 16.0.3, SVG Export Plug-In . SVG Version: 6.00 Build 0)  -->
<!DOCTYPE svg PUBLIC "-//W3C//DTD SVG 1.1//EN" "http://www.w3.org/Graphics/SVG/1.1/DTD/svg11.dtd">
<svg version="1.1" id="Layer_1" xmlns="http://www.w3.org/2000/svg" xmlns:xlink="http://www.w3.org/1999/xlink" x="0px" y="0px"
	 width="700px" height="400px" viewBox="0 0 700 400" enable-background="new 0 0 700 400" xml:space="preserve">
<g id="Lockup">
	<g id="Four_Kitchens">
		<g id="Kitchens">
			<path fill="#666666" d="M401.282,309.878l-17.739-46.582v46.582H372.71v-94.789h10.833v45.905l18.688-45.905h11.51
				l-19.498,46.582l18.957,48.207H401.282z"/>
			<path fill="#666666" d="M430.314,309.878H419.48v-94.789h10.834V309.878L430.314,309.878z"/>
			<path fill="#666666" d="M451.052,309.878v-84.769h-14.219v-10.021h39.27v10.021h-14.218v84.769H451.052z"/>
			<path fill="#666666" d="M521.726,273.452v19.635c0,11.781-5.822,17.604-17.604,17.604h-3.521
				c-11.779,0-17.604-5.823-17.604-17.604V231.88c0-11.78,5.823-17.604,17.604-17.604h3.521c11.646,0,17.333,5.688,17.333,17.334
				v17.062h-10.562v-17.333c0-4.875-2.302-7.178-7.177-7.178h-2.709c-4.875,0-7.177,2.303-7.177,7.178v62.29
				c0,4.874,2.302,7.177,7.177,7.177h2.979c4.874,0,7.177-2.303,7.177-7.177v-20.177L521.726,273.452L521.726,273.452z"/>
			<path fill="#666666" d="M556.883,256.391v-41.302h10.833v94.789h-10.833v-43.332h-17.604v43.332h-10.833v-94.789h10.833v41.302
				H556.883z"/>
			<path fill="#666666" d="M605.401,215.089v10.021h-18.958v31.416h18.279v9.886h-18.279v33.446h19.229v10.021H575.61V215.09
				L605.401,215.089L605.401,215.089z"/>
			<path fill="#666666" d="M643.906,215.089h10.292v94.789h-13.542l-17.062-74.069v74.069h-10.29v-94.789h14.896l15.708,68.654
				L643.906,215.089L643.906,215.089z"/>
			<path fill="#666666" d="M699.011,279.273v13.812c0,11.781-5.821,17.604-17.604,17.604h-2.979
				c-11.646,0-17.333-5.823-17.333-17.335v-19.904h10.563v20.312c0,4.875,2.302,7.178,7.177,7.178h2.166
				c4.875,0,7.177-2.303,7.177-7.178v-14.219c0-4.738-1.625-6.771-4.738-9.072l-13.271-9.615c-7.041-5.01-9.073-9.885-9.073-17.603
				V231.88c0-11.78,5.823-17.604,17.604-17.604h2.708c11.646,0,17.333,5.824,17.333,17.334v17.062h-10.562v-17.468
				c0-4.876-2.302-7.178-7.177-7.178h-1.896c-4.875,0-7.177,2.302-7.177,7.178v11.916c0,4.738,1.761,6.771,4.874,9.072l13.135,9.479
				C696.845,266.682,699.011,271.15,699.011,279.273z"/>
		</g>
		<g id="Four">
			<path fill="#666666" d="M401.824,91.564v10.021h-18.281v31.687h17.604v9.885h-17.604v43.197H372.71v-94.79H401.824z"/>
			<path fill="#666666" d="M430.042,187.167h-4.062c-11.781,0-17.604-5.824-17.604-17.604v-61.207
				c0-11.781,5.822-17.604,17.604-17.604h4.062c11.781,0,17.604,5.823,17.604,17.604v61.207
				C447.646,181.343,441.823,187.167,430.042,187.167z M429.637,100.637h-3.25c-4.876,0-7.178,2.303-7.178,7.177v62.29
				c0,4.875,2.302,7.177,7.178,7.177h3.25c4.875,0,7.178-2.302,7.178-7.177v-62.29C436.812,102.939,434.512,100.637,429.637,100.637
				z"/>
			<path fill="#666666" d="M493.822,169.562c0,11.78-5.823,17.604-17.604,17.604h-3.386c-11.781,0-17.604-5.824-17.604-17.604
				V91.564h10.833v78.54c0,4.875,2.303,7.177,7.178,7.177h2.572c4.875,0,7.178-2.302,7.178-7.177v-78.54h10.833L493.822,169.562
				L493.822,169.562z"/>
			<path fill="#666666" d="M538.92,154.396v31.958h-10.833v-31.551c0-5.688-2.572-8.261-8.26-8.261h-7.989v39.812h-10.833v-94.79
				h20.177c11.78,0,17.604,5.823,17.604,17.604v17.603c0,8.531-2.979,12.729-8.396,14.896
				C536.348,143.292,538.92,147.083,538.92,154.396z M520.775,101.45h-8.938v35.478h8.125c5.416,0,7.988-2.573,7.988-7.989v-20.312
				C527.951,103.751,525.649,101.45,520.775,101.45z"/>
		</g>
	</g>
	<g id="Logo_1_">
		<circle fill="#35AA4E" cx="165.19" cy="200.624" r="163.164"/>
		<g>
			<g>
				<path id="bracket_2_" fill="#FFFFFF" d="M208.01,156.289v-19.646c0-19.882,5.144-30.178,25.506-30.178h4.907V91.256h-7.953
					c-27.847,0-41.408,14.974-41.408,43.516v16.606c0,24.1-6.554,40.709-30.879,40.709h-2.11v16.831h2.11
					c24.091,0,30.879,17.078,30.879,40.699v16.851c0,28.067,13.091,43.514,41.408,43.514h7.953v-15.206h-4.907
					c-20.362,0-25.506-10.289-25.506-30.184v-19.638c0-23.405-9.595-37.433-29.718-44.217
					C198.188,193.715,208.01,180.148,208.01,156.289z"/>
				<g id="knife_2_">
					<path fill="#FFFFFF" d="M141.471,237.837v-86.688c0-36.4-3.406-61.901-3.406-61.901s-24.435,17.217-35.057,64.998
						c-8.404,37.832-11.053,78.559-11.053,78.559s31.855-0.229,33.771,3.825c1.896,4.048-1.999,15.353-1.999,28.47
						c0,13.116,1.67,19.229,0.237,24.23c-1.428,5.018-4.86,6.291-5.012,8.591c-0.146,2.295,0.243,14.081,12.409,14.081
						c3.377,0,8.328-3.244,9.283-11.675C142.207,286.525,142.652,259.087,141.471,237.837z M131.165,302.32
						c-1.561,0-2.818-1.26-2.818-2.816s1.257-2.822,2.818-2.822c1.569,0,2.828,1.266,2.828,2.822S132.733,302.32,131.165,302.32z
						 M133.439,277.607c-1.561,0-2.821-1.264-2.821-2.822s1.26-2.814,2.821-2.814c1.558,0,2.825,1.256,2.825,2.814
						S134.997,277.607,133.439,277.607z M133.867,253.602c-1.546,0-2.813-1.272-2.813-2.82c0-1.562,1.267-2.825,2.813-2.825
						c1.565,0,2.824,1.265,2.824,2.825C136.69,252.328,135.432,253.602,133.867,253.602z"/>
				</g>
			</g>
		</g>
	</g>
</g>
</svg>
